# xmcd
#
# Track frame offsets: 
#        183
#        12633
#        26308
#        38450
#        49923
#        62115
#        75535
#        88513
#        102730
#        114255
#        126815
#        138945
#        151148
#        164455
#        177458
#        189720
#        202355
#        214163
#
# Disc length: 2998 seconds
#
# Revision: 4
# Processed by: cddbd v1.5.2PL0 Copyright (c) Steve Scherf et al.
# Submitted via: ExactAudioCopyFreeDBPlugin 1.0
#
DISCID=fa0bb412
DTITLE=Little Walter - Boss Blues Harmonica
DYEAR=1992
DGENRE=Blues
TTITLE0=Tell me mama
TTITLE1=You're so fine
TTITLE2=Last night
TTITLE3=My babe
TTITLE4=Juke
TTITLE5=Can't hold out much longer
TTITLE6=Mean old world
TTITLE7=Sad hours
TTITLE8=Too late
TTITLE9=Thunderbird
TTITLE10=I got to go
TTITLE11=Boom, boom out goes the lights
TTITLE12=Teenage beat
TTITLE13=Just a feeling
TTITLE14=Shake dancer
TTITLE15=Ah'w baby
TTITLE16=It's too late brother
TTITLE17=Just your fool
EXTD=YEAR: 1992
EXTT0=
EXTT1=
EXTT2=
EXTT3=
EXTT4=
EXTT5=
EXTT6=
EXTT7=
EXTT8=
EXTT9=
EXTT10=
EXTT11=
EXTT12=
EXTT13=
EXTT14=
EXTT15=
EXTT16=
EXTT17=
PLAYORDER=
